<svg xmlns="http://www.w3.org/2000/svg" viewBox="0 0 240 180" fill="none" stroke-linecap="round" stroke-linejoin="round">
  <ellipse cx="120" cy="94" rx="98" ry="60" fill="#FF00E3"/>
  <path d="M56 54H132a10 10 0 0 0 20 0h32a8 8 0 0 1 8 8v56a8 8 0 0 1-8 8h-32a10 10 0 0 0-20 0H56a8 8 0 0 1-8-8V62a8 8 0 0 1 8-8z" fill="#FF00E6" stroke="#FF00E0" stroke-width="3"/>
  <path d="M142 60v60" stroke="#FF00E7" stroke-width="2" stroke-dasharray="3 7"/>
  <path d="M64 74h56M64 90h34" stroke="#FF00E1" stroke-width="4"/>
  <circle cx="150" cy="120" r="30" fill="#FF00E2"/>
  <path d="M137 120l9 10 18-21" stroke="#FF00E6" stroke-width="5"/>
  <path d="M62 34v10M42 50l8 6M92 32l-4 10" stroke="#FF00E4" stroke-width="3"/>
</svg>
